<svg xmlns="http://www.w3.org/2000/svg" width="26.574" height="27.362" viewBox="0 0 26.574 27.362">
  <path id="restart-icon" d="M13.825.562A13.044,13.044,0,0,0,4.671,4.352L2.758,2.381a1.282,1.282,0,0,0-2.2.936v7.4a1.305,1.305,0,0,0,1.286,1.324H9.031a1.329,1.329,0,0,0,.909-2.26L7.7,7.474a8.8,8.8,0,0,1,6.067-2.5,9.137,9.137,0,0,1,9.08,9.347,9.136,9.136,0,0,1-9,9.188,8.787,8.787,0,0,1-5.927-2.292.629.629,0,0,0-.877.031L4.92,23.437a.677.677,0,0,0,.026.962,13.028,13.028,0,0,0,8.9,3.525A13.488,13.488,0,0,0,27.137,14.244,13.511,13.511,0,0,0,13.825.562Z" transform="translate(-0.563 -0.562)" fill="#e2e2e2"/>
</svg>
